<?xml version="1.0" standalone="no"?>
<!DOCTYPE svg PUBLIC "-//W3C//DTD SVG 20010904//EN"
 "http://www.w3.org/TR/2001/REC-SVG-20010904/DTD/svg10.dtd">
<svg version="1.0" xmlns="http://www.w3.org/2000/svg"
 width="1001.000000pt" height="1001.000000pt" viewBox="0 0 1001.000000 1001.000000"
 preserveAspectRatio="xMidYMid meet">
<metadata>
Created by potrace 1.14, written by Peter Selinger 2001-2017
</metadata>
<g transform="translate(0.000000,1001.000000) scale(0.100000,-0.100000)"
fill="#000000" stroke="none">
<path d="M4740 10004 c-1272 -76 -2441 -607 -3318 -1508 -828 -851 -1319
-1932 -1413 -3108 -16 -202 -7 -759 15 -938 76 -613 226 -1122 486 -1649 245
-495 533 -901 919 -1294 268 -272 496 -462 805 -668 624 -417 1310 -681 2051
-789 258 -37 376 -45 715 -45 488 0 799 38 1236 150 1180 303 2205 1024 2906
2045 112 163 245 393 348 601 285 577 444 1153 500 1809 14 161 14 628 0 790
-71 843 -342 1634 -798 2330 -838 1279 -2190 2103 -3702 2255 -149 15 -615 27
-750 19z m886 -1042 c55 -44 59 -109 10 -158 -26 -26 -42 -34 -71 -34 -49 0
-105 53 -105 100 0 65 43 110 105 110 23 0 49 -8 61 -18z m-315 -2 c25 -14 49
-62 49 -101 0 -46 -56 -99 -105 -99 -49 0 -105 53 -105 99 0 38 23 86 47 100
23 14 89 14 114 1z m-235 -48 c55 -44 59 -109 11 -157 l-33 -33 28 -6 c35 -7
68 -58 68 -104 0 -49 -55 -102 -105 -102 -50 0 -105 53 -105 102 0 37 33 98
52 98 7 0 -1 9 -18 19 -41 25 -64 59 -64 94 0 62 44 107 105 107 23 0 49 -8
61 -18z m-290 -40 c55 -44 59 -109 10 -158 -26 -26 -42 -34 -71 -34 -49 0
-105 53 -105 100 0 65 43 110 105 110 23 0 49 -8 61 -18z m1150 -40 c56 -45
59 -109 9 -159 -32 -32 -39 -35 -78 -30 -132 18 -125 207 8 207 23 0 49 -8 61
-18z m1340 -50 c55 -44 59 -109 10 -158 -26 -26 -42 -34 -71 -34 -49 0 -105
53 -105 100 0 65 43 110 105 110 23 0 49 -8 61 -18z m-260 -30 c78 -62 45
-176 -53 -189 -39 -5 -46 -2 -78 30 -25 25 -35 44 -35 67 0 65 43 110 105 110
23 0 49 -8 61 -18z m-1380 -10 c55 -44 59 -109 10 -158 -26 -26 -42 -34 -71
-34 -49 0 -105 53 -105 100 0 65 43 110 105 110 23 0 49 -8 61 -18z m1120 -10
c55 -44 59 -109 10 -158 -26 -26 -42 -34 -71 -34 -49 0 -105 53 -105 100 0 65
43 110 105 110 23 0 49 -8 61 -18z m-270 -10 c78 -62 45 -176 -53 -189 -39 -5
-46 -2 -78 30 -25 25 -35 44 -35 67 0 65 43 110 105 110 23 0 49 -8 61 -18z
m-1880 -10 c78 -62 45 -176 -53 -189 -39 -5 -46 -2 -78 30 -25 25 -35 44 -35
67 0 65 43 110 105 110 23 0 49 -8 61 -18z m1510 -100 c55 -44 59 -109 10
-158 -26 -26 -42 -34 -71 -34 -49 0 -105 53 -105 100 0 65 43 110 105 110 23
0 49 -8 61 -18z m1520 0 c55 -44 59 -109 10 -158 -26 -26 -42 -34 -71 -34 -49
0 -105 53 -105 100 0 65 43 110 105 110 23 0 49 -8 61 -18z m-3270 -80 c55
-44 59 -109 10 -158 -26 -26 -42 -34 -71 -34 -49 0 -105 53 -105 100 0 65 43
110 105 110 23 0 49 -8 61 -18z m2940 -10 c55 -44 59 -109 10 -158 -26 -26
-42 -34 -71 -34 -49 0 -105 53 -105 100 0 65 43 110 105 110 23 0 49 -8 61
-18z m-960 -10 c55 -44 59 -109 10 -158 -26 -26 -42 -34 -71 -34 -49 0 -105
53 -105 100 0 65 43 110 105 110 23 0 49 -8 61 -18z m430 -10 c55 -44 59 -109
10 -158 -26 -26 -42 -34 -71 -34 -49 0 -105 53 -105 100 0 65 43 110 105 110
23 0 49 -8 61 -18z m-2630 -40 c78 -62 45 -176 -53 -189 -39 -5 -46 -2 -78 30
-25 25 -35 44 -35 67 0 65 43 110 105 110 23 0 49 -8 61 -18z m1060 -30 c55
-44 59 -109 10 -158 -26 -26 -42 -34 -71 -34 -49 0 -105 53 -105 100 0 65 43
110 105 110 23 0 49 -8 61 -18z m2585 -2 c25 -14 49 -62 49 -101 0 -46 -56
-99 -105 -99 -49 0 -105 53 -105 99 0 38 23 86 47 100 23 14 89 14 114 1z
m-3122 -44 c31 -17 51 -54 51 -97 0 -46 -56 -99 -105 -99 -29 0 -45 8 -71 34
-89 89 12 220 125 162z m1477 -4 c55 -44 59 -109 10 -158 -26 -26 -42 -34 -71
-34 -49 0 -105 53 -105 100 0 65 43 110 105 110 23 0 49 -8 61 -18z m-1690
-70 c55 -44 59 -109 10 -158 -26 -26 -42 -34 -71 -34 -49 0 -105 53 -105 100
0 65 43 110 105 110 23 0 49 -8 61 -18z m-480 -20 c78 -62 45 -176 -53 -189
-39 -5 -46 -2 -78 30 -25 25 -35 44 -35 67 0 65 43 110 105 110 23 0 49 -8 61
-18z m1820 -40 c55 -44 59 -109 10 -158 -26 -26 -42 -34 -71 -34 -49 0 -105
53 -105 100 0 65 43 110 105 110 23 0 49 -8 61 -18z m1095 -2 c25 -14 49 -62
49 -101 0 -46 -56 -99 -105 -99 -29 0 -45 8 -71 34 -49 49 -45 114 10 158 23
20 87 24 117 8z m-505 -48 c55 -44 59 -109 10 -158 -26 -26 -42 -34 -71 -34
-51 0 -105 53 -105 102 1 65 44 107 110 107 19 0 45 -7 56 -17z m1460 -30 c29
-23 44 -54 44 -92 0 -42 -56 -100 -96 -101 -16 0 -23 -3 -16 -6 19 -8 42 -58
42 -94 0 -46 -56 -99 -105 -99 -49 0 -105 53 -105 100 0 59 42 109 93 110 l29
0 -26 31 c-58 69 -11 169 79 169 23 0 49 -8 61 -18z m-1710 -20 c55 -44 59
-109 10 -158 -26 -26 -42 -34 -71 -34 -49 0 -105 53 -105 100 0 65 43 110 105
110 23 0 49 -8 61 -18z m2130 -80 c55 -44 59 -109 10 -158 -26 -26 -42 -34
-71 -34 -49 0 -105 53 -105 100 0 65 43 110 105 110 23 0 49 -8 61 -18z
m-2670 -10 c55 -44 59 -109 10 -158 -26 -26 -42 -34 -71 -34 -49 0 -105 53
-105 100 0 65 43 110 105 110 23 0 49 -8 61 -18z m-1060 -20 c55 -44 59 -109
10 -158 -26 -26 -42 -34 -71 -34 -49 0 -105 53 -105 100 0 65 43 110 105 110
23 0 49 -8 61 -18z m3505 8 c25 -14 49 -62 49 -101 0 -46 -56 -99 -105 -99
-49 0 -105 53 -105 99 0 38 23 86 47 100 23 14 89 14 114 1z m-5185 -48 c55
-44 59 -109 10 -158 l-35 -35 23 -14 c28 -19 46 -56 46 -96 0 -46 -56 -99
-105 -99 -49 0 -105 53 -105 99 0 40 18 77 46 96 l23 14 -35 35 c-24 24 -34
43 -34 66 0 65 43 110 105 110 23 0 49 -8 61 -18z m220 0 c55 -44 59 -109 10
-158 -26 -26 -42 -34 -71 -34 -49 0 -105 53 -105 100 0 65 43 110 105 110 23
0 49 -8 61 -18z m310 0 c55 -44 59 -109 10 -158 -26 -26 -42 -34 -71 -34 -49
0 -105 53 -105 100 0 65 43 110 105 110 23 0 49 -8 61 -18z m4050 0 c55 -44
59 -109 10 -158 -26 -26 -42 -34 -71 -34 -49 0 -105 53 -105 100 0 65 43 110
105 110 23 0 49 -8 61 -18z m-4890 -30 c78 -62 45 -176 -53 -189 -39 -5 -46
-2 -78 30 -25 25 -35 44 -35 67 0 65 43 110 105 110 23 0 49 -8 61 -18z m1550
-10 c55 -44 59 -109 10 -158 -26 -26 -42 -34 -71 -34 -49 0 -105 53 -105 100
0 65 43 110 105 110 23 0 49 -8 61 -18z m840 -30 c55 -44 59 -109 10 -158 -26
-26 -42 -34 -71 -34 -49 0 -105 53 -105 100 0 65 43 110 105 110 23 0 49 -8
61 -18z m-1280 -20 c48 -38 58 -102 23 -146 l-20 -26 38 0 c60 -1 103 -46 103
-110 0 -47 -56 -100 -105 -100 -29 0 -45 8 -71 34 -38 38 -44 77 -19 126 l16
30 -32 0 c-43 0 -99 56 -99 100 0 65 43 110 105 110 23 0 49 -8 61 -18z m220
0 c55 -44 59 -109 10 -158 -26 -26 -42 -34 -71 -34 -49 0 -105 53 -105 100 0
65 43 110 105 110 23 0 49 -8 61 -18z m4710 -10 c55 -44 59 -109 10 -158 -26
-26 -42 -34 -71 -34 -49 0 -105 53 -105 100 0 65 43 110 105 110 23 0 49 -8
61 -18z m-2420 -10 c55 -44 59 -109 10 -158 -26 -26 -42 -34 -71 -34 -49 0
-105 53 -105 100 0 65 43 110 105 110 23 0 49 -8 61 -18z m-1460 -40 c55 -44
59 -109 10 -158 -26 -26 -42 -34 -71 -34 -49 0 -105 53 -105 100 0 65 43 110
105 110 23 0 49 -8 61 -18z m2550 -30 c55 -44 59 -109 10 -158 -26 -26 -42
-34 -71 -34 -49 0 -105 53 -105 100 0 65 43 110 105 110 23 0 49 -8 61 -18z
m1015 8 c25 -14 49 -62 49 -101 0 -46 -56 -99 -105 -99 -49 0 -105 53 -105 99
0 38 23 86 47 100 23 14 89 14 114 1z m-5935 -18 c55 -44 59 -109 10 -158 -26
-26 -42 -34 -71 -34 -49 0 -105 53 -105 100 0 65 43 110 105 110 23 0 49 -8
61 -18z m1030 -30 c55 -44 59 -109 10 -158 -26 -26 -42 -34 -71 -34 -49 0
-105 53 -105 100 0 65 43 110 105 110 23 0 49 -8 61 -18z m2330 -10 c55 -44
59 -109 10 -158 -26 -26 -42 -34 -71 -34 -49 0 -105 53 -105 100 0 65 43 110
105 110 23 0 49 -8 61 -18z m940 0 c55 -44 59 -109 10 -158 -26 -26 -42 -34
-71 -34 -49 0 -105 53 -105 100 0 65 43 110 105 110 23 0 49 -8 61 -18z m1140
-20 c55 -44 59 -109 10 -158 -26 -26 -42 -34 -71 -34 -49 0 -105 53 -105 100
0 65 43 110 105 110 23 0 49 -8 61 -18z m-1430 -70 c55 -44 59 -109 10 -158
-26 -26 -42 -34 -71 -34 -49 0 -105 53 -105 100 0 65 43 110 105 110 23 0 49
-8 61 -18z m2390 0 c55 -44 59 -109 10 -158 -26 -26 -42 -34 -71 -34 -49 0
-105 53 -105 100 0 65 43 110 105 110 23 0 49 -8 61 -18z m-4775 -22 c25 -14
49 -62 49 -101 0 -22 -10 -41 -35 -66 -30 -30 -40 -35 -74 -31 l-39 3 14 -27
c24 -47 18 -86 -20 -124 l-34 -34 31 0 c80 -1 125 -100 75 -166 -12 -16 -15
-23 -8 -16 20 18 91 15 116 -6 44 -35 57 -98 30 -138 -13 -19 -12 -20 20 -16
52 6 83 -6 104 -41 31 -50 26 -93 -14 -133 -48 -48 -95 -47 -143 1 -30 30 -34
40 -31 73 3 20 8 44 12 52 5 13 -1 15 -34 12 -35 -4 -44 0 -76 32 -31 31 -36
41 -32 74 3 20 8 44 12 52 5 13 -1 15 -34 12 -35 -4 -44 0 -75 31 -50 50 -47
114 9 159 l21 18 -28 0 c-41 0 -97 58 -97 100 0 65 43 109 105 110 23 0 47 -6
55 -12 7 -7 2 2 -13 20 -41 51 -34 113 17 154 23 20 87 24 117 8z m1505 -8
c55 -44 59 -109 10 -158 -26 -26 -42 -34 -71 -34 -49 0 -105 53 -105 100 0 65
43 110 105 110 23 0 49 -8 61 -18z m-3260 -80 c55 -44 59 -109 10 -158 -26
-26 -42 -34 -71 -34 -49 0 -105 53 -105 100 0 65 43 110 105 110 23 0 49 -8
61 -18z m2110 -10 c55 -44 59 -109 10 -158 -26 -26 -42 -34 -71 -34 -49 0
-105 53 -105 100 0 65 43 110 105 110 23 0 49 -8 61 -18z m3595 8 c25 -14 49
-62 49 -101 0 -46 -56 -99 -105 -99 -49 0 -105 53 -105 99 0 38 23 86 47 100
23 14 89 14 114 1z m-6025 -18 c55 -44 59 -109 10 -158 -26 -26 -42 -34 -71
-34 -49 0 -105 53 -105 100 0 65 43 110 105 110 23 0 49 -8 61 -18z m1085 -2
c25 -14 49 -62 49 -101 0 -46 -56 -99 -105 -99 -29 0 -45 8 -71 34 -49 49 -45
114 10 158 23 20 87 24 117 8z m4370 -10 c25 -14 49 -62 49 -101 0 -46 -56
-99 -105 -99 -49 0 -105 53 -105 99 0 38 23 86 47 100 23 14 89 14 114 1z
m-4895 -58 c55 -44 59 -109 10 -158 -26 -26 -42 -34 -71 -34 -49 0 -105 53
-105 100 0 65 43 110 105 110 23 0 49 -8 61 -18z m4660 -20 c55 -44 59 -109
10 -158 -26 -26 -42 -34 -71 -34 -49 0 -105 53 -105 100 0 65 43 110 105 110
23 0 49 -8 61 -18z m-3005 -12 c25 -14 49 -62 49 -101 0 -46 -56 -99 -105 -99
-49 0 -105 53 -105 99 0 38 23 86 47 100 23 14 89 14 114 1z m1430 -20 c25
-14 49 -62 49 -101 0 -46 -56 -99 -105 -99 -29 0 -45 8 -71 34 -49 49 -45 114
10 158 23 20 87 24 117 8z m3315 -8 c55 -44 59 -109 10 -158 -26 -26 -42 -34
-71 -34 -49 0 -105 53 -105 100 0 65 43 110 105 110 23 0 49 -8 61 -18z
m-7150 -40 c55 -44 59 -109 10 -158 -26 -26 -42 -34 -71 -34 -49 0 -105 53
-105 100 0 65 43 110 105 110 23 0 49 -8 61 -18z m1860 0 c55 -44 59 -109 10
-158 -26 -26 -42 -34 -71 -34 -49 0 -105 53 -105 100 0 65 43 110 105 110 23
0 49 -8 61 -18z m5025 -12 c25 -14 49 -62 49 -101 0 -46 -56 -99 -105 -99 -49
0 -105 53 -105 99 0 38 23 86 47 100 23 14 89 14 114 1z m-6375 -18 c55 -44
59 -109 10 -158 -26 -26 -42 -34 -71 -34 -49 0 -105 53 -105 100 0 65 43 110
105 110 23 0 49 -8 61 -18z m3780 -40 c55 -44 59 -109 10 -158 -26 -26 -42
-34 -71 -34 -49 0 -105 53 -105 100 0 65 43 110 105 110 23 0 49 -8 61 -18z
m-1210 -20 c55 -44 59 -109 10 -158 -26 -26 -42 -34 -71 -34 -49 0 -105 53
-105 100 0 65 43 110 105 110 23 0 49 -8 61 -18z m3580 -10 c55 -44 59 -109
10 -158 -26 -26 -42 -34 -71 -34 -49 0 -105 53 -105 100 0 65 43 110 105 110
23 0 49 -8 61 -18z m-2650 -10 c55 -44 59 -109 10 -158 -26 -26 -42 -34 -71
-34 -49 0 -105 53 -105 100 0 65 43 110 105 110 23 0 49 -8 61 -18z m-2350
-70 c55 -44 59 -109 10 -158 -26 -26 -42 -34 -71 -34 -49 0 -105 53 -105 100
0 65 43 110 105 110 23 0 49 -8 61 -18z m5680 -10 c55 -44 59 -109 10 -158
-26 -26 -42 -34 -71 -34 -49 0 -105 53 -105 100 0 65 43 110 105 110 23 0 49
-8 61 -18z m-1855 -22 c25 -14 49 -62 49 -101 0 -46 -56 -99 -105 -99 -49 0
-105 53 -105 99 0 38 23 86 47 100 23 14 89 14 114 1z m1555 -8 c78 -62 45
-176 -53 -189 -39 -5 -46 -2 -78 30 -25 25 -35 44 -35 67 0 65 43 110 105 110
23 0 49 -8 61 -18z m-3220 -20 c55 -44 59 -109 10 -158 -26 -26 -42 -34 -71
-34 -49 0 -105 53 -105 100 0 65 43 110 105 110 23 0 49 -8 61 -18z m-3220
-10 c55 -44 59 -109 10 -158 -26 -26 -42 -34 -71 -34 -49 0 -105 53 -105 100
0 65 43 110 105 110 23 0 49 -8 61 -18z m4110 -10 c56 -45 59 -109 9 -159 -32
-32 -39 -35 -78 -30 -132 18 -125 207 8 207 23 0 49 -8 61 -18z m1780 -40 c55
-44 59 -109 10 -158 -26 -26 -42 -34 -71 -34 -49 0 -105 53 -105 100 0 65 43
110 105 110 23 0 49 -8 61 -18z m-3340 -10 c55 -44 59 -109 10 -158 -26 -26
-42 -34 -71 -34 -49 0 -105 53 -105 100 0 65 43 110 105 110 23 0 49 -8 61
-18z m2760 0 c55 -44 59 -109 10 -158 -26 -26 -42 -34 -71 -34 -49 0 -105 53
-105 100 0 65 43 110 105 110 23 0 49 -8 61 -18z m-5782 -12 c30 -11 56 -57
56 -101 0 -46 -56 -99 -105 -99 -29 0 -45 8 -71 34 -86 86 4 211 120 166z
m912 -28 c55 -44 59 -109 10 -158 -26 -26 -42 -34 -71 -34 -49 0 -105 53 -105
100 0 65 43 110 105 110 23 0 49 -8 61 -18z m1640 -20 c55 -44 59 -109 10
-158 -26 -26 -42 -34 -71 -34 -49 0 -105 53 -105 100 0 65 43 110 105 110 23
0 49 -8 61 -18z m-2790 -10 c55 -44 59 -109 10 -158 -26 -26 -42 -34 -71 -34
-49 0 -105 53 -105 100 0 65 43 110 105 110 23 0 49 -8 61 -18z m5780 -10 c55
-44 59 -109 10 -158 -26 -26 -42 -34 -71 -34 -49 0 -105 53 -105 100 0 65 43
110 105 110 23 0 49 -8 61 -18z m-3880 -10 c55 -44 59 -109 10 -158 -26 -26
-42 -34 -71 -34 -49 0 -105 53 -105 100 0 65 43 110 105 110 23 0 49 -8 61
-18z m5730 -10 c55 -44 59 -109 10 -158 -26 -26 -42 -34 -71 -34 -49 0 -105
53 -105 100 0 65 43 110 105 110 23 0 49 -8 61 -18z m-6770 -30 c55 -44 59
-109 10 -158 -26 -26 -42 -34 -71 -34 -49 0 -105 53 -105 100 0 65 43 110 105
110 23 0 49 -8 61 -18z m790 -50 c55 -44 59 -109 10 -158 -26 -26 -42 -34 -71
-34 -49 0 -105 53 -105 100 0 65 43 110 105 110 23 0 49 -8 61 -18z m1430 0
c55 -44 59 -109 10 -158 -26 -26 -42 -34 -71 -34 -49 0 -105 53 -105 100 0 65
43 110 105 110 23 0 49 -8 61 -18z m930 0 c55 -44 59 -109 10 -158 -26 -26
-42 -34 -71 -34 -49 0 -105 53 -105 100 0 65 43 110 105 110 23 0 49 -8 61
-18z m900 -10 c55 -44 59 -109 10 -158 -26 -26 -42 -34 -71 -34 -49 0 -105 53
-105 100 0 65 43 110 105 110 23 0 49 -8 61 -18z m-470 -40 c55 -44 59 -109
10 -158 l-34 -34 29 0 c65 0 109 -45 109 -111 0 -46 -56 -99 -105 -99 -29 0
-45 8 -71 34 -49 49 -45 114 10 158 21 17 21 18 -12 18 -46 0 -102 55 -102
100 0 65 43 110 105 110 23 0 49 -8 61 -18z m2255 -22 c25 -14 49 -62 49 -101
0 -46 -56 -99 -105 -99 -49 0 -105 53 -105 99 0 38 23 86 47 100 23 14 89 14
114 1z m-3832 -14 c31 -17 51 -54 51 -97 0 -46 -56 -99 -105 -99 -29 0 -45 8
-71 34 -89 89 12 220 125 162z m-2753 -94 c51 -41 58 -103 17 -154 -15 -18
-20 -27 -13 -20 20 18 91 15 116 -6 55 -44 59 -109 10 -158 -26 -26 -42 -34
-71 -34 -29 0 -45 8 -71 34 -38 38 -44 77 -20 124 l14 28 -35 -4 c-25 -3 -43
2 -65 18 -28 21 -29 21 -19 2 19 -35 13 -78 -15 -111 l-26 -31 39 0 c60 -1
103 -46 103 -110 0 -23 -10 -42 -34 -66 l-34 -34 31 0 c54 -1 97 -49 97 -110
0 -47 -56 -100 -105 -100 -29 0 -45 8 -71 34 -49 49 -45 114 10 158 l21 18
-28 0 c-41 0 -97 58 -97 100 0 37 15 69 42 90 17 15 16 15 -22 12 -35 -4 -44
0 -75 31 -50 50 -47 114 9 159 23 19 101 25 111 8 12 -20 21 -9 17 20 -5 37
14 86 42 105 28 20 96 19 122 -3z m4650 0 c55 -44 59 -109 10 -158 -26 -26
-42 -34 -71 -34 -49 0 -105 53 -105 100 0 65 43 110 105 110 23 0 49 -8 61
-18z m-580 -20 c55 -44 59 -109 10 -158 -26 -26 -42 -34 -71 -34 -49 0 -105
53 -105 100 0 65 43 110 105 110 23 0 49 -8 61 -18z m3480 -20 c55 -44 59
-109 10 -158 -26 -26 -42 -34 -71 -34 -49 0 -105 53 -105 100 0 65 43 110 105
110 23 0 49 -8 61 -18z m-7150 -10 c55 -44 59 -109 10 -158 -26 -26 -42 -34
-71 -34 -49 0 -105 53 -105 100 0 65 43 110 105 110 23 0 49 -8 61 -18z m1205
-22 c25 -14 49 -62 49 -101 0 -46 -56 -99 -105 -99 -29 0 -45 8 -71 34 -49 49
-45 114 10 158 23 20 87 24 117 8z m5745 -68 c55 -44 59 -109 10 -158 -26 -26
-42 -34 -71 -34 -49 0 -105 53 -105 100 0 65 43 110 105 110 23 0 49 -8 61
-18z m-5300 -30 c55 -44 59 -109 10 -158 -26 -26 -42 -34 -71 -34 -49 0 -105
53 -105 100 0 65 43 110 105 110 23 0 49 -8 61 -18z m-2450 -20 c55 -44 59
-109 10 -158 -26 -26 -42 -34 -71 -34 -49 0 -105 53 -105 100 0 65 43 110 105
110 23 0 49 -8 61 -18z m7430 0 c55 -44 59 -109 10 -158 -26 -26 -42 -34 -71
-34 -49 0 -105 53 -105 100 0 65 43 110 105 110 23 0 49 -8 61 -18z m-5237
-36 c31 -17 51 -54 51 -97 0 -46 -56 -99 -105 -99 -29 0 -45 8 -71 34 -89 89
12 220 125 162z m-983 -84 c55 -44 59 -109 10 -158 -26 -26 -42 -34 -71 -34
-49 0 -105 53 -105 100 0 65 43 110 105 110 23 0 49 -8 61 -18z m-1380 -60
c55 -44 59 -109 10 -158 -26 -26 -42 -34 -71 -34 -49 0 -105 53 -105 100 0 65
43 110 105 110 23 0 49 -8 61 -18z m8080 0 c55 -44 59 -109 10 -158 -26 -26
-42 -34 -71 -34 -49 0 -105 53 -105 100 0 65 43 110 105 110 23 0 49 -8 61
-18z m-5855 -22 c22 -13 49 -61 49 -90 0 -37 -30 -81 -66 -96 -42 -18 -80 -10
-116 24 -38 35 -39 97 -2 141 22 26 33 31 71 31 24 0 53 -5 64 -10z m855 -8
c55 -44 59 -109 10 -158 -26 -26 -42 -34 -71 -34 -49 0 -105 53 -105 100 0 65
43 110 105 110 23 0 49 -8 61 -18z m780 -90 c42 -34 56 -90 33 -135 -9 -18 -9
-20 2 -9 19 18 90 15 115 -6 55 -44 59 -109 10 -158 -26 -26 -42 -34 -71 -34
-73 0 -128 88 -94 151 9 19 9 19 -10 10 -39 -21 -81 -13 -117 23 -69 69 -26
176 71 176 23 0 49 -8 61 -18z m-2380 -60 c55 -44 59 -109 10 -158 -26 -26
-42 -34 -71 -34 -49 0 -105 53 -105 100 0 65 43 110 105 110 23 0 49 -8 61
-18z m2130 -20 c55 -44 59 -109 10 -158 -26 -26 -42 -34 -71 -34 -49 0 -105
53 -105 100 0 65 43 110 105 110 23 0 49 -8 61 -18z m-2610 -30 c55 -44 59
-109 10 -158 -26 -26 -42 -34 -71 -34 -49 0 -105 53 -105 100 0 65 43 110 105
110 23 0 49 -8 61 -18z m1253 -16 c31 -17 51 -54 51 -97 0 -46 -56 -99 -105
-99 -29 0 -45 8 -71 34 -89 89 12 220 125 162z m877 -24 c55 -44 59 -109 10
-158 -26 -26 -42 -34 -71 -34 -49 0 -105 53 -105 100 0 65 43 110 105 110 23
0 49 -8 61 -18z m4980 -10 c55 -44 59 -109 10 -158 -26 -26 -42 -34 -71 -34
-49 0 -105 53 -105 100 0 65 43 110 105 110 23 0 49 -8 61 -18z m-7950 -10
c55 -44 59 -109 10 -158 -26 -26 -42 -34 -71 -34 -49 0 -105 53 -105 100 0 65
43 110 105 110 23 0 49 -8 61 -18z m-270 -20 c55 -44 59 -109 10 -158 -26 -26
-42 -34 -71 -34 -49 0 -105 53 -105 100 0 65 43 110 105 110 23 0 49 -8 61
-18z m2780 0 c55 -44 59 -109 10 -158 -26 -26 -42 -34 -71 -34 -49 0 -105 53
-105 100 0 65 43 110 105 110 23 0 49 -8 61 -18z m-1955 -32 c25 -14 49 -62
49 -101 0 -46 -56 -99 -105 -99 -29 0 -45 8 -71 34 -49 49 -45 114 10 158 23
20 87 24 117 8z m7165 -28 c56 -45 59 -109 9 -159 -32 -32 -39 -35 -78 -30
-132 18 -125 207 8 207 23 0 49 -8 61 -18z m-6550 -10 c55 -44 59 -109 10
-158 -26 -26 -42 -34 -71 -34 -49 0 -105 53 -105 100 0 65 43 110 105 110 23
0 49 -8 61 -18z m1110 -30 c55 -44 59 -109 10 -158 -26 -26 -42 -34 -71 -34
-49 0 -105 53 -105 100 0 65 43 110 105 110 23 0 49 -8 61 -18z m540 -30 c55
-44 59 -109 10 -158 -26 -26 -42 -34 -71 -34 -49 0 -105 53 -105 100 0 65 43
110 105 110 23 0 49 -8 61 -18z m-1937 -16 c31 -17 51 -54 51 -97 0 -46 -56
-99 -105 -99 -29 0 -45 8 -71 34 -89 89 12 220 125 162z m3047 -44 c55 -44 59
-109 10 -158 -26 -26 -42 -34 -71 -34 -49 0 -105 53 -105 100 0 65 43 110 105
110 23 0 49 -8 61 -18z m-1347 -16 c31 -17 51 -54 51 -97 0 -46 -56 -99 -105
-99 -29 0 -45 8 -71 34 -89 89 12 220 125 162z m1132 -46 c25 -14 49 -62 49
-101 0 -46 -56 -99 -105 -99 -49 0 -105 53 -105 99 0 38 23 86 47 100 23 14
89 14 114 1z m-3915 -18 c55 -44 59 -109 10 -158 -26 -26 -42 -34 -71 -34 -49
0 -105 53 -105 100 0 65 43 110 105 110 23 0 49 -8 61 -18z m3470 -60 c55 -44
59 -109 10 -158 -26 -26 -42 -34 -71 -34 -49 0 -105 53 -105 100 0 65 43 110
105 110 23 0 49 -8 61 -18z m4550 -10 c55 -44 59 -109 10 -158 -26 -26 -42
-34 -71 -34 -49 0 -105 53 -105 100 0 65 43 110 105 110 23 0 49 -8 61 -18z
m-5420 -20 c55 -44 59 -109 10 -158 -26 -26 -42 -34 -71 -34 -49 0 -105 53
-105 100 0 65 43 110 105 110 23 0 49 -8 61 -18z m-2170 -30 c55 -44 59 -109
10 -158 -26 -26 -42 -34 -71 -34 -49 0 -105 53 -105 100 0 65 43 110 105 110
23 0 49 -8 61 -18z m3615 -92 c25 -14 49 -62 49 -101 0 -46 -56 -99 -105 -99
-49 0 -105 53 -105 99 0 38 23 86 47 100 23 14 89 14 114 1z m-3820 -10 c25
-14 49 -62 49 -101 0 -46 -56 -99 -105 -99 -29 0 -45 8 -71 34 -49 49 -45 114
10 158 23 20 87 24 117 8z m-235 -28 c55 -44 59 -109 10 -158 -26 -26 -42 -34
-71 -34 -49 0 -105 53 -105 100 0 65 43 110 105 110 23 0 49 -8 61 -18z m7520
-20 c55 -44 59 -109 10 -158 -26 -26 -42 -34 -71 -34 -49 0 -105 53 -105 100
0 65 43 110 105 110 23 0 49 -8 61 -18z m270 0 c55 -44 59 -109 10 -158 -26
-26 -42 -34 -71 -34 -49 0 -105 53 -105 100 0 65 43 110 105 110 23 0 49 -8
61 -18z m-5050 -20 c55 -44 59 -109 10 -158 -26 -26 -42 -34 -71 -34 -49 0
-105 53 -105 100 0 65 43 110 105 110 23 0 49 -8 61 -18z m850 0 c55 -44 59
-109 10 -158 l-34 -34 35 0 c45 0 69 -14 88 -50 25 -49 19 -88 -19 -126 -26
-26 -42 -34 -71 -34 -29 0 -45 8 -71 34 -49 49 -45 114 10 158 21 17 21 18
-12 18 -46 0 -102 55 -102 100 0 65 43 110 105 110 23 0 49 -8 61 -18z m-2740
-30 c56 -45 59 -109 9 -159 -32 -32 -39 -35 -78 -30 -132 18 -125 207 8 207
23 0 49 -8 61 -18z m2270 -30 c55 -44 59 -109 10 -158 -26 -26 -42 -34 -71
-34 -49 0 -105 53 -105 100 0 65 43 110 105 110 23 0 49 -8 61 -18z m-1470
-70 c55 -44 59 -109 10 -158 -26 -26 -42 -34 -71 -34 -49 0 -105 53 -105 100
0 65 43 110 105 110 23 0 49 -8 61 -18z m2240 -10 c55 -44 59 -109 10 -158
-26 -26 -42 -34 -71 -34 -49 0 -105 53 -105 100 0 65 43 110 105 110 23 0 49
-8 61 -18z m-997 -36 c31 -17 51 -54 51 -97 0 -46 -56 -99 -105 -99 -29 0 -45
8 -71 34 -89 89 12 220 125 162z m537 -14 c55 -44 59 -109 10 -158 -26 -26
-42 -34 -71 -34 -49 0 -105 53 -105 100 0 65 43 110 105 110 23 0 49 -8 61
-18z m-3420 -40 c55 -44 59 -109 10 -158 -26 -26 -42 -34 -71 -34 -49 0 -105
53 -105 100 0 65 43 110 105 110 23 0 49 -8 61 -18z m940 -50 c55 -44 59 -109
10 -158 -26 -26 -42 -34 -71 -34 -49 0 -105 53 -105 100 0 65 43 110 105 110
23 0 49 -8 61 -18z m440 0 c55 -44 59 -109 10 -158 -26 -26 -42 -34 -71 -34
-49 0 -105 53 -105 100 0 65 43 110 105 110 23 0 49 -8 61 -18z m1800 -20 c55
-44 59 -109 10 -158 -26 -26 -42 -34 -71 -34 -49 0 -105 53 -105 100 0 65 43
110 105 110 23 0 49 -8 61 -18z m-2690 -10 c55 -44 59 -109 10 -158 -26 -26
-42 -34 -71 -34 -49 0 -105 53 -105 100 0 65 43 110 105 110 23 0 49 -8 61
-18z m1310 0 c55 -44 59 -109 10 -158 -26 -26 -42 -34 -71 -34 -49 0 -105 53
-105 100 0 65 43 110 105 110 23 0 49 -8 61 -18z m-1600 -70 c29 -23 44 -54
44 -92 0 -41 -56 -100 -94 -100 l-26 0 20 -32 c31 -51 26 -94 -14 -134 -26
-26 -42 -34 -71 -34 -29 0 -45 8 -71 34 -38 38 -44 77 -19 126 18 35 43 50 85
50 l32 0 -26 31 c-58 69 -11 169 79 169 23 0 49 -8 61 -18z m600 -90 c55 -44
59 -109 10 -158 -43 -43 -90 -46 -135 -8 l-31 26 0 -27 c0 -42 -59 -95 -105
-95 -29 0 -45 8 -71 34 -19 19 -34 42 -34 52 0 16 -2 15 -16 -5 -9 -12 -30
-31 -48 -42 -17 -10 -25 -19 -18 -19 19 0 52 -61 52 -98 0 -49 -55 -102 -105
-102 -49 0 -105 53 -105 99 0 47 25 88 63 102 l33 11 -33 33 c-37 37 -43 77
-18 125 19 37 43 50 90 50 51 0 74 -15 96 -63 10 -23 19 -36 19 -29 0 7 11 24
25 37 34 35 101 35 139 0 25 -23 26 -23 26 -4 0 54 48 99 105 99 23 0 49 -8
61 -18z m1090 -70 c55 -44 59 -109 10 -158 -26 -26 -42 -34 -71 -34 -49 0
-105 53 -105 100 0 65 43 110 105 110 23 0 49 -8 61 -18z m-220 -60 c56 -45
59 -109 9 -159 -32 -32 -39 -35 -78 -30 -132 18 -125 207 8 207 23 0 49 -8 61
-18z m-1730 -200 c55 -44 59 -109 10 -158 -26 -26 -42 -34 -71 -34 -49 0 -105
53 -105 100 0 65 43 110 105 110 23 0 49 -8 61 -18z m1880 -20 c55 -44 59
-109 10 -158 -26 -26 -42 -34 -71 -34 -49 0 -105 53 -105 100 0 65 43 110 105
110 23 0 49 -8 61 -18z m-550 -30 c55 -44 59 -109 10 -158 -26 -26 -42 -34
-71 -34 -49 0 -105 53 -105 100 0 65 43 110 105 110 23 0 49 -8 61 -18z m5820
-40 c48 -25 98 -79 119 -129 8 -20 14 -38 12 -39 -2 -2 -28 -8 -58 -14 -38 -7
-55 -7 -57 0 -9 25 -59 74 -89 86 -98 42 -205 -13 -234 -119 -17 -64 -7 -175
21 -225 40 -70 128 -100 203 -68 34 14 87 68 87 89 1 33 16 37 66 21 27 -9 53
-20 57 -24 15 -13 -42 -118 -81 -150 -104 -86 -281 -78 -382 16 -73 69 -95
126 -95 254 0 95 3 111 28 162 34 69 99 129 164 151 66 23 184 18 239 -11z
m-2246 -307 l0 -325 -60 0 -60 0 0 325 0 325 60 0 60 0 0 -325z m590 270 l0
-55 -181 -213 -182 -212 187 -3 186 -2 0 -55 0 -55 -260 0 -260 0 0 60 0 61
175 204 c96 113 175 207 175 210 0 3 -70 5 -155 5 l-155 0 0 55 0 55 235 0
235 0 0 -55z m550 0 l0 -55 -95 0 -95 0 0 -270 0 -270 -60 0 -60 0 0 270 0
270 -95 0 -95 0 0 55 0 55 250 0 250 0 0 -55z m580 0 l0 -55 -180 0 -180 0 0
-70 0 -70 170 0 170 0 0 -55 0 -55 -170 0 -170 0 0 -90 0 -90 185 0 185 0 0
-55 0 -55 -245 0 -245 0 0 325 0 325 240 0 240 0 0 -55z m890 -75 l0 -130 135
0 135 0 0 130 0 130 60 0 60 0 0 -325 0 -325 -60 0 -60 0 0 140 0 140 -135 0
-135 0 0 -140 0 -140 -60 0 -60 0 0 325 0 325 60 0 60 0 0 -130z m-6947 86
c29 -27 42 -64 35 -100 -4 -22 -2 -23 33 -19 56 8 87 -4 109 -40 31 -50 26
-93 -14 -133 -26 -26 -42 -34 -71 -34 -74 0 -128 88 -94 152 11 20 10 20 -12
4 -40 -27 -86 -21 -125 18 -36 36 -44 77 -23 119 31 60 114 77 162 33z m383
-64 c51 -40 58 -104 18 -151 l-26 -31 32 0 c42 0 67 -15 85 -50 25 -49 19 -88
-19 -126 -26 -26 -42 -34 -71 -34 -49 0 -105 53 -105 99 0 36 23 86 42 94 7 3
-2 6 -21 6 -45 1 -101 56 -101 101 0 65 43 110 105 110 23 0 49 -8 61 -18z
m760 -10 c55 -44 59 -109 10 -158 -26 -26 -42 -34 -71 -34 -49 0 -105 53 -105
100 0 65 43 110 105 110 23 0 49 -8 61 -18z m-1580 -100 c55 -44 59 -109 10
-158 -26 -26 -42 -34 -71 -34 -49 0 -105 53 -105 100 0 65 43 110 105 110 23
0 49 -8 61 -18z m1130 -10 c55 -44 59 -109 10 -158 -26 -26 -42 -34 -71 -34
-49 0 -105 53 -105 100 0 65 43 110 105 110 23 0 49 -8 61 -18z m208 8 c30
-11 56 -57 56 -101 0 -46 -56 -99 -105 -99 -49 0 -105 53 -105 100 0 84 73
131 154 100z m-1618 -68 c55 -44 59 -109 10 -158 -26 -26 -42 -34 -71 -34 -49
0 -105 53 -105 100 0 65 43 110 105 110 23 0 49 -8 61 -18z m2760 -220 c78
-62 45 -176 -53 -189 -39 -5 -46 -2 -78 30 -25 25 -35 44 -35 67 0 65 43 110
105 110 23 0 49 -8 61 -18z m-2680 -20 c55 -44 59 -109 10 -158 -26 -26 -42
-34 -71 -34 -49 0 -105 53 -105 100 0 65 43 110 105 110 23 0 49 -8 61 -18z
m465 -62 c25 -14 49 -62 49 -101 0 -46 -56 -99 -105 -99 -49 0 -105 53 -105
99 0 38 23 86 47 100 23 14 89 14 114 1z m2495 -8 c55 -44 59 -109 10 -158
-26 -26 -42 -34 -71 -34 -49 0 -105 53 -105 100 0 65 43 110 105 110 23 0 49
-8 61 -18z m-475 -22 c25 -14 49 -62 49 -101 0 -46 -56 -99 -105 -99 -49 0
-105 53 -105 99 0 38 23 86 47 100 23 14 89 14 114 1z m-2265 -78 c55 -44 59
-109 10 -158 -26 -26 -42 -34 -71 -34 -49 0 -105 53 -105 100 0 65 43 110 105
110 23 0 49 -8 61 -18z m2940 -40 c51 -40 58 -104 18 -151 l-26 -31 39 0 c60
-1 103 -46 103 -110 0 -46 -56 -100 -103 -100 -19 0 -45 8 -58 19 l-24 19 3
-39 c4 -34 -1 -44 -32 -75 -33 -33 -40 -36 -79 -31 -98 13 -131 127 -53 189
23 19 101 25 111 8 11 -19 25 -10 25 16 0 31 16 64 41 84 17 14 15 15 -27 15
-39 1 -51 5 -75 33 -62 69 -17 172 76 172 23 0 49 -8 61 -18z m-3165 -42 c25
-14 49 -62 49 -101 0 -46 -56 -99 -105 -99 -49 0 -105 53 -105 99 0 38 23 86
47 100 23 14 89 14 114 1z m6463 -305 c62 -154 120 -299 129 -322 l17 -43 -64
0 -64 0 -27 75 -28 75 -131 0 -131 0 -29 -75 -29 -75 -63 0 -64 0 19 48 c10
26 65 162 121 302 56 140 106 265 111 278 8 21 14 23 65 20 l56 -3 112 -280z
m346 -40 l0 -325 -60 0 -60 0 0 325 0 325 60 0 60 0 0 -325z m-4424 297 c55
-44 59 -109 10 -158 -26 -26 -42 -34 -71 -34 -49 0 -105 53 -105 100 0 65 43
110 105 110 23 0 49 -8 61 -18z m-1520 -10 c55 -44 59 -109 10 -158 -26 -26
-42 -34 -71 -34 -49 0 -105 53 -105 100 0 65 43 110 105 110 23 0 49 -8 61
-18z m790 -90 c55 -44 59 -109 10 -158 -26 -26 -42 -34 -71 -34 -49 0 -105 53
-105 100 0 65 43 110 105 110 23 0 49 -8 61 -18z m890 -70 c55 -44 59 -109 10
-158 -26 -26 -42 -34 -71 -34 -49 0 -105 53 -105 100 0 65 43 110 105 110 23
0 49 -8 61 -18z m-2500 -20 c55 -44 59 -109 10 -158 -26 -26 -42 -34 -71 -34
-49 0 -105 53 -105 100 0 65 43 110 105 110 23 0 49 -8 61 -18z m1390 -50 c55
-44 59 -109 10 -158 -26 -26 -42 -34 -71 -34 -49 0 -105 53 -105 100 0 65 43
110 105 110 23 0 49 -8 61 -18z m390 -10 c55 -44 59 -109 10 -158 -26 -26 -42
-34 -71 -34 -49 0 -105 53 -105 100 0 65 43 110 105 110 23 0 49 -8 61 -18z
m-860 -20 c55 -44 59 -109 10 -158 -26 -26 -42 -34 -71 -34 -49 0 -105 53
-105 100 0 65 43 110 105 110 23 0 49 -8 61 -18z m-450 -20 c55 -44 59 -109
10 -158 -26 -26 -42 -34 -71 -34 -49 0 -105 53 -105 100 0 65 43 110 105 110
23 0 49 -8 61 -18z m2350 -80 c55 -44 59 -109 10 -158 -26 -26 -42 -34 -71
-34 -49 0 -105 53 -105 100 0 65 43 110 105 110 23 0 49 -8 61 -18z m-2635
-12 c25 -14 49 -62 49 -101 0 -46 -56 -99 -105 -99 -29 0 -45 8 -71 34 -49 49
-45 114 10 158 23 20 87 24 117 8z m3015 -8 c55 -44 59 -109 10 -158 -26 -26
-42 -34 -71 -34 -49 0 -105 53 -105 100 0 65 43 110 105 110 23 0 49 -8 61
-18z m-2430 -40 c55 -44 59 -109 10 -158 -26 -26 -42 -34 -71 -34 -49 0 -105
53 -105 100 0 65 43 110 105 110 23 0 49 -8 61 -18z m1080 -70 c55 -44 59
-109 10 -158 -26 -26 -42 -34 -71 -34 -49 0 -105 53 -105 100 0 65 43 110 105
110 23 0 49 -8 61 -18z m-1285 -12 c25 -14 49 -62 49 -101 0 -46 -56 -99 -105
-99 -49 0 -105 53 -105 99 0 38 23 86 47 100 23 14 89 14 114 1z m1035 -58
c55 -44 59 -109 10 -158 -26 -26 -42 -34 -71 -34 -49 0 -105 53 -105 100 0 65
43 110 105 110 23 0 49 -8 61 -18z m-1240 -20 c55 -44 59 -109 10 -158 -26
-26 -42 -34 -71 -34 -49 0 -105 53 -105 100 0 65 43 110 105 110 23 0 49 -8
61 -18z m2910 -20 c55 -44 59 -109 10 -158 -26 -26 -42 -34 -71 -34 -49 0
-105 53 -105 100 0 65 43 110 105 110 23 0 49 -8 61 -18z m-2040 -10 c55 -44
59 -109 10 -158 -26 -26 -42 -34 -71 -34 -49 0 -105 53 -105 100 0 65 43 110
105 110 23 0 49 -8 61 -18z m1270 0 c56 -45 59 -109 9 -159 -32 -32 -39 -35
-78 -30 -132 18 -125 207 8 207 23 0 49 -8 61 -18z m540 -30 c78 -62 45 -176
-53 -189 -39 -5 -46 -2 -78 30 -25 25 -35 44 -35 67 0 65 43 110 105 110 23 0
49 -8 61 -18z m-1290 -80 c55 -44 59 -109 10 -158 -26 -26 -42 -34 -71 -34
-49 0 -105 53 -105 100 0 65 43 110 105 110 23 0 49 -8 61 -18z m530 -30 c55
-44 59 -109 10 -158 -26 -26 -42 -34 -71 -34 -49 0 -105 53 -105 100 0 65 43
110 105 110 23 0 49 -8 61 -18z m390 -10 c55 -44 59 -109 10 -158 l-34 -34 32
0 c53 -1 96 -49 96 -110 0 -47 -56 -100 -105 -100 -29 0 -45 8 -71 34 -49 49
-45 114 9 157 19 16 19 16 -16 23 -124 23 -108 206 18 206 23 0 49 -8 61 -18z
m2538 -21 c53 -26 91 -76 101 -133 l7 -38 -60 0 c-57 0 -60 1 -72 30 -23 56
-109 77 -184 46 -41 -17 -50 -30 -42 -60 7 -28 34 -41 159 -76 53 -15 115 -40
138 -54 95 -63 105 -205 20 -291 -45 -47 -90 -60 -201 -60 -77 1 -103 5 -135
22 -63 33 -104 88 -119 159 l-7 32 58 7 c31 4 59 3 60 -2 25 -74 77 -113 151
-113 78 0 132 36 132 87 0 39 -26 55 -145 89 -142 42 -189 70 -216 127 -46
102 3 207 112 243 65 21 184 13 243 -15z m1416 -36 l0 -55 -60 0 -60 0 0 55 0
55 60 0 60 0 0 -55z m805 -125 l45 0 0 -45 0 -45 -45 0 -45 0 0 -139 c0 -157
5 -168 65 -157 l35 7 0 -45 0 -45 -46 -7 c-64 -9 -114 1 -143 31 -25 25 -26
29 -29 190 l-3 165 -30 0 c-28 0 -29 2 -29 45 0 43 1 45 30 45 29 0 30 2 30
44 0 43 1 45 58 80 l57 35 3 -80 3 -79 44 0z m-6999 102 c55 -44 59 -109 10
-158 -26 -26 -42 -34 -71 -34 -49 0 -105 53 -105 100 0 65 43 110 105 110 23
0 49 -8 61 -18z m890 0 c55 -44 59 -109 10 -158 -26 -26 -42 -34 -71 -34 -49
0 -105 53 -105 100 0 65 43 110 105 110 23 0 49 -8 61 -18z m-460 -20 c55 -44
59 -109 10 -158 -26 -26 -42 -34 -71 -34 -49 0 -105 53 -105 100 0 65 43 110
105 110 23 0 49 -8 61 -18z m2340 -10 c55 -44 59 -109 10 -158 -26 -26 -42
-34 -71 -34 -49 0 -105 53 -105 100 0 65 43 110 105 110 23 0 49 -8 61 -18z
m-1605 -12 c22 -13 49 -61 49 -90 0 -37 -30 -81 -66 -96 -42 -18 -80 -10 -116
24 -38 35 -39 97 -2 141 22 26 33 31 71 31 24 0 53 -5 64 -10z m4187 -79 c157
-80 162 -330 8 -426 -44 -27 -58 -30 -125 -30 -82 0 -136 21 -177 67 -74 81
-84 226 -22 318 65 95 207 127 316 71z m500 14 c20 -9 47 -26 60 -38 25 -23
56 -76 49 -83 -2 -2 -28 -8 -58 -14 -41 -8 -55 -7 -58 2 -8 25 -51 58 -75 58
-62 0 -94 -34 -103 -110 -13 -113 28 -200 95 -200 31 0 82 33 82 53 1 32 16
37 70 27 29 -6 55 -12 57 -14 9 -9 -27 -74 -56 -101 -38 -37 -82 -53 -141 -54
-95 -2 -162 35 -203 113 -18 33 -22 57 -22 131 0 98 17 146 68 193 53 49 163
66 235 37z m726 3 c83 -25 146 -124 146 -230 l0 -38 -161 0 -161 0 6 -32 c15
-82 112 -115 166 -58 27 29 29 30 80 20 29 -6 54 -10 57 -10 2 0 -3 -13 -11
-29 -33 -62 -105 -101 -191 -101 -129 0 -212 80 -223 215 -15 192 120 314 292
263z m-384 -233 l0 -235 -60 0 -60 0 0 235 0 235 60 0 60 0 0 -235z m1042 69
l53 -166 53 166 53 166 59 0 60 0 -99 -288 c-54 -159 -106 -300 -115 -315 -21
-32 -83 -57 -141 -57 -50 0 -52 2 -61 57 l-6 39 37 -4 c67 -8 112 66 85 140
-6 18 -43 122 -80 231 l-69 197 59 0 60 0 52 -166z m-7066 98 c55 -44 59 -109
10 -158 -26 -26 -42 -34 -71 -34 -49 0 -105 53 -105 100 0 65 43 110 105 110
23 0 49 -8 61 -18z m530 -10 c44 -35 57 -98 30 -138 -13 -19 -12 -20 20 -16
52 6 83 -6 104 -41 31 -50 26 -93 -14 -133 -48 -48 -95 -47 -143 1 -30 30 -34
40 -31 73 3 20 8 44 12 52 5 13 -1 15 -34 12 -35 -4 -44 0 -75 31 -25 25 -35
44 -35 67 0 65 43 110 105 110 23 0 49 -8 61 -18z m300 -10 c55 -44 59 -109
10 -158 -26 -26 -42 -34 -71 -34 -49 0 -105 53 -105 100 0 65 43 110 105 110
23 0 49 -8 61 -18z m1620 0 c55 -44 59 -109 10 -158 -26 -26 -42 -34 -71 -34
-49 0 -105 53 -105 100 0 65 43 110 105 110 23 0 49 -8 61 -18z m-530 -20 c55
-44 59 -109 10 -158 -26 -26 -42 -34 -71 -34 -49 0 -105 53 -105 100 0 65 43
110 105 110 23 0 49 -8 61 -18z m-1640 -30 c55 -44 59 -109 10 -158 -26 -26
-42 -34 -71 -34 -49 0 -105 53 -105 100 0 65 43 110 105 110 23 0 49 -8 61
-18z m1215 -52 c25 -14 49 -62 49 -101 0 -46 -56 -99 -105 -99 -49 0 -105 53
-105 99 0 38 23 86 47 100 23 14 89 14 114 1z m775 -28 c55 -44 59 -109 10
-158 -26 -26 -42 -34 -71 -34 -49 0 -105 53 -105 100 0 65 43 110 105 110 23
0 49 -8 61 -18z m-200 -110 c55 -44 59 -109 10 -158 -26 -26 -42 -34 -71 -34
-49 0 -105 53 -105 100 0 65 43 110 105 110 23 0 49 -8 61 -18z m-1285 -92
c25 -14 49 -62 49 -101 0 -46 -56 -99 -105 -99 -49 0 -105 53 -105 99 0 38 23
86 47 100 23 14 89 14 114 1z m810 0 c25 -14 49 -62 49 -101 0 -46 -56 -99
-105 -99 -49 0 -105 53 -105 99 0 38 23 86 47 100 23 14 89 14 114 1z m-470
-70 c25 -14 49 -62 49 -99 0 -17 -11 -42 -26 -60 l-26 -31 37 0 c47 0 71 -13
90 -50 25 -49 19 -88 -19 -126 -26 -26 -42 -34 -71 -34 -29 0 -45 8 -71 34
-40 40 -45 83 -14 134 l20 32 -31 0 c-43 0 -99 56 -99 99 0 38 23 86 47 100
23 14 89 14 114 1z m795 -8 c55 -44 59 -109 10 -158 -26 -26 -42 -34 -71 -34
-49 0 -105 53 -105 100 0 65 43 110 105 110 23 0 49 -8 61 -18z m-475 -92 c25
-14 49 -62 49 -101 0 -46 -56 -99 -105 -99 -49 0 -105 53 -105 99 0 38 23 86
47 100 23 14 89 14 114 1z m-530 -30 c25 -14 49 -62 49 -101 0 -46 -56 -99
-105 -99 -49 0 -105 53 -105 99 0 38 23 86 47 100 23 14 89 14 114 1z m795 -8
c55 -44 59 -109 10 -158 -26 -26 -42 -34 -71 -34 -49 0 -105 53 -105 100 0 65
43 110 105 110 23 0 49 -8 61 -18z"/>
<path d="M7206 3537 c-22 -56 -41 -108 -44 -114 -3 -10 17 -13 83 -13 80 0 86
1 80 19 -3 10 -22 62 -43 115 l-37 96 -39 -103z"/>
<path d="M6611 2728 c-41 -22 -64 -63 -69 -121 -9 -108 35 -172 118 -172 34 0
54 6 70 20 66 58 67 201 2 258 -26 24 -90 32 -121 15z"/>
<path d="M7883 2728 c-21 -10 -53 -63 -53 -87 0 -7 34 -11 100 -11 108 0 112
2 88 55 -21 47 -85 67 -135 43z"/>
</g>
</svg>
